<mxfile host="app.diagrams.net" modified="2023-10-21T21:50:31.117Z" agent="Mozilla/5.0 (Windows NT 10.0; Win64; x64) AppleWebKit/537.36 (KHTML, like Gecko) Chrome/118.0.0.0 Safari/537.36 Unique/90.7.3596.97" etag="0d6ba8d-x6ZQSaxmJEhM" version="22.0.6" type="device">
  <diagram name="Page-1" id="zXew3Vii30WxWKLZ7IYh">
    <mxGraphModel dx="1509" dy="823" grid="1" gridSize="10" guides="1" tooltips="1" connect="1" arrows="1" fold="1" page="1" pageScale="1" pageWidth="1100" pageHeight="850" math="0" shadow="0">
      <root>
        <mxCell id="0" />
        <mxCell id="1" parent="0" />
        <mxCell id="hkACoKRm0wRK34MTO_R9-61" value="" style="group;movable=1;resizable=1;rotatable=1;deletable=1;editable=1;locked=0;connectable=1;" vertex="1" connectable="0" parent="1">
          <mxGeometry x="920" y="350" width="136.54000000000002" height="170" as="geometry" />
        </mxCell>
        <mxCell id="hkACoKRm0wRK34MTO_R9-58" value="" style="shape=image;html=1;verticalAlign=top;verticalLabelPosition=bottom;labelBackgroundColor=#ffffff;imageAspect=0;aspect=fixed;image=https://cdn2.iconfinder.com/data/icons/whcompare-isometric-web-hosting-servers/50/database-128.png;movable=0;resizable=0;rotatable=0;deletable=0;editable=0;locked=1;connectable=0;" vertex="1" parent="hkACoKRm0wRK34MTO_R9-61">
          <mxGeometry width="128" height="128" as="geometry" />
        </mxCell>
        <mxCell id="hkACoKRm0wRK34MTO_R9-120" value="Base de datos" style="text;html=1;strokeColor=none;fillColor=none;align=center;verticalAlign=middle;whiteSpace=wrap;rounded=0;fontStyle=1;fontSize=16;" vertex="1" parent="hkACoKRm0wRK34MTO_R9-61">
          <mxGeometry x="-8.529999999999973" y="140" width="145.07" height="30" as="geometry" />
        </mxCell>
        <mxCell id="hkACoKRm0wRK34MTO_R9-74" value="" style="group;fontStyle=1;fontSize=18;" vertex="1" connectable="0" parent="1">
          <mxGeometry x="150" y="210" width="610" height="410" as="geometry" />
        </mxCell>
        <mxCell id="hkACoKRm0wRK34MTO_R9-66" value="" style="group" vertex="1" connectable="0" parent="hkACoKRm0wRK34MTO_R9-74">
          <mxGeometry x="320" y="108" width="170" height="50" as="geometry" />
        </mxCell>
        <mxCell id="hkACoKRm0wRK34MTO_R9-64" value="" style="rounded=1;whiteSpace=wrap;html=1;strokeWidth=2;fillWeight=4;hachureGap=8;hachureAngle=45;fillColor=#1ba1e2;sketch=1;" vertex="1" parent="hkACoKRm0wRK34MTO_R9-66">
          <mxGeometry width="170" height="20" as="geometry" />
        </mxCell>
        <mxCell id="hkACoKRm0wRK34MTO_R9-65" value="" style="rounded=1;whiteSpace=wrap;html=1;strokeWidth=2;fillWeight=4;hachureGap=8;hachureAngle=45;fillColor=#1ba1e2;sketch=1;" vertex="1" parent="hkACoKRm0wRK34MTO_R9-66">
          <mxGeometry y="30" width="170" height="20" as="geometry" />
        </mxCell>
        <mxCell id="hkACoKRm0wRK34MTO_R9-68" value="" style="rounded=1;whiteSpace=wrap;html=1;strokeWidth=2;fillWeight=4;hachureGap=8;hachureAngle=45;fillColor=#05fa63;sketch=1;" vertex="1" parent="hkACoKRm0wRK34MTO_R9-74">
          <mxGeometry x="320" y="290" width="170" height="20" as="geometry" />
        </mxCell>
        <mxCell id="hkACoKRm0wRK34MTO_R9-70" value="" style="rounded=1;whiteSpace=wrap;html=1;strokeWidth=2;fillWeight=4;hachureGap=8;hachureAngle=45;fillColor=#05fa63;sketch=1;" vertex="1" parent="hkACoKRm0wRK34MTO_R9-74">
          <mxGeometry x="320" y="330" width="170" height="20" as="geometry" />
        </mxCell>
        <mxCell id="hkACoKRm0wRK34MTO_R9-71" value="API" style="swimlane;fontStyle=1;startSize=23;fontSize=15;" vertex="1" parent="hkACoKRm0wRK34MTO_R9-74">
          <mxGeometry width="610" height="410" as="geometry" />
        </mxCell>
        <mxCell id="hkACoKRm0wRK34MTO_R9-84" value="Controladores" style="text;html=1;strokeColor=none;fillColor=none;align=center;verticalAlign=middle;whiteSpace=wrap;rounded=0;fontStyle=1;fontSize=16;" vertex="1" parent="hkACoKRm0wRK34MTO_R9-71">
          <mxGeometry x="44.79" y="300" width="145.07" height="30" as="geometry" />
        </mxCell>
        <mxCell id="hkACoKRm0wRK34MTO_R9-62" value="" style="image;aspect=fixed;html=1;points=[];align=center;fontSize=12;image=img/lib/azure2/general/Controls.svg;" vertex="1" parent="hkACoKRm0wRK34MTO_R9-71">
          <mxGeometry x="60" y="125" width="129.86" height="160" as="geometry" />
        </mxCell>
        <mxCell id="hkACoKRm0wRK34MTO_R9-85" value="Comandos de lectura" style="text;html=1;strokeColor=none;fillColor=none;align=center;verticalAlign=middle;whiteSpace=wrap;rounded=0;fontStyle=1;fontSize=16;" vertex="1" parent="hkACoKRm0wRK34MTO_R9-71">
          <mxGeometry x="330" y="60" width="145.07" height="30" as="geometry" />
        </mxCell>
        <mxCell id="hkACoKRm0wRK34MTO_R9-86" value="Comandos de escritura" style="text;html=1;strokeColor=none;fillColor=none;align=center;verticalAlign=middle;whiteSpace=wrap;rounded=0;fontStyle=1;fontSize=16;" vertex="1" parent="hkACoKRm0wRK34MTO_R9-71">
          <mxGeometry x="330" y="240" width="145.07" height="30" as="geometry" />
        </mxCell>
        <mxCell id="hkACoKRm0wRK34MTO_R9-103" value="" style="endArrow=classic;html=1;rounded=0;endSize=17;startSize=24;jumpSize=13;strokeWidth=6;" edge="1" parent="hkACoKRm0wRK34MTO_R9-71">
          <mxGeometry width="50" height="50" relative="1" as="geometry">
            <mxPoint x="310" y="130" as="sourcePoint" />
            <mxPoint x="200" y="160" as="targetPoint" />
          </mxGeometry>
        </mxCell>
        <mxCell id="hkACoKRm0wRK34MTO_R9-119" value="" style="endArrow=classic;html=1;rounded=0;endSize=17;startSize=24;jumpSize=13;strokeWidth=6;entryX=0;entryY=0.5;entryDx=0;entryDy=0;" edge="1" parent="hkACoKRm0wRK34MTO_R9-71" target="hkACoKRm0wRK34MTO_R9-61">
          <mxGeometry width="50" height="50" relative="1" as="geometry">
            <mxPoint x="510" y="320" as="sourcePoint" />
            <mxPoint x="610" y="360" as="targetPoint" />
          </mxGeometry>
        </mxCell>
        <mxCell id="hkACoKRm0wRK34MTO_R9-139" value="" style="endArrow=classic;html=1;rounded=0;endSize=17;startSize=24;jumpSize=13;strokeWidth=6;" edge="1" parent="hkACoKRm0wRK34MTO_R9-71">
          <mxGeometry width="50" height="50" relative="1" as="geometry">
            <mxPoint x="50" y="230" as="sourcePoint" />
            <mxPoint x="-110" y="230" as="targetPoint" />
          </mxGeometry>
        </mxCell>
        <mxCell id="hkACoKRm0wRK34MTO_R9-89" value="" style="endArrow=classic;html=1;rounded=0;exitX=0;exitY=0.25;exitDx=0;exitDy=0;endSize=17;startSize=24;jumpSize=13;strokeWidth=6;" edge="1" parent="1" source="hkACoKRm0wRK34MTO_R9-61">
          <mxGeometry width="50" height="50" relative="1" as="geometry">
            <mxPoint x="570" y="510" as="sourcePoint" />
            <mxPoint x="660" y="340" as="targetPoint" />
          </mxGeometry>
        </mxCell>
        <mxCell id="hkACoKRm0wRK34MTO_R9-104" value="" style="endArrow=classic;html=1;rounded=0;endSize=17;startSize=24;jumpSize=13;strokeWidth=6;" edge="1" parent="1">
          <mxGeometry width="50" height="50" relative="1" as="geometry">
            <mxPoint x="350" y="490" as="sourcePoint" />
            <mxPoint x="460" y="530" as="targetPoint" />
          </mxGeometry>
        </mxCell>
        <mxCell id="hkACoKRm0wRK34MTO_R9-118" value="" style="endArrow=classic;html=1;rounded=0;endSize=17;startSize=24;jumpSize=13;strokeWidth=6;" edge="1" parent="1">
          <mxGeometry width="50" height="50" relative="1" as="geometry">
            <mxPoint x="350" y="490" as="sourcePoint" />
            <mxPoint x="460" y="530" as="targetPoint" />
          </mxGeometry>
        </mxCell>
        <mxCell id="hkACoKRm0wRK34MTO_R9-122" value="" style="endArrow=classic;html=1;rounded=0;endSize=17;startSize=24;jumpSize=13;strokeWidth=6;" edge="1" parent="1">
          <mxGeometry width="50" height="50" relative="1" as="geometry">
            <mxPoint x="50" y="380" as="sourcePoint" />
            <mxPoint x="200" y="380" as="targetPoint" />
          </mxGeometry>
        </mxCell>
        <mxCell id="hkACoKRm0wRK34MTO_R9-138" value="" style="endArrow=classic;html=1;rounded=0;endSize=17;startSize=24;jumpSize=13;strokeWidth=6;" edge="1" parent="1">
          <mxGeometry width="50" height="50" relative="1" as="geometry">
            <mxPoint x="50" y="380" as="sourcePoint" />
            <mxPoint x="200" y="380" as="targetPoint" />
          </mxGeometry>
        </mxCell>
        <mxCell id="hkACoKRm0wRK34MTO_R9-143" value="Peticiones" style="text;html=1;strokeColor=none;fillColor=none;align=center;verticalAlign=middle;whiteSpace=wrap;rounded=0;fontStyle=1;fontSize=16;" vertex="1" parent="1">
          <mxGeometry x="4.930000000000007" y="320" width="145.07" height="30" as="geometry" />
        </mxCell>
      </root>
    </mxGraphModel>
  </diagram>
</mxfile>
